<svg width="512" height="512" viewBox="0 0 512 512" fill="none" xmlns="http://www.w3.org/2000/svg">
<g clip-path="url(#clip0)">
<path d="M256 0C114.512 0 -0.000999994 114.496 6.54943e-09 256C6.54943e-09 397.491 114.497 512 256 512C397.488 512 512.001 397.504 512 256C512 114.509 397.503 0 256 0ZM415.806 415.807C327.689 503.924 184.311 503.924 96.194 415.807V415.806C8.077 327.689 8.077 184.312 96.194 96.194C184.52 7.869 327.474 7.863 415.807 96.195C503.923 184.312 503.923 327.688 415.806 415.807Z" fill="#D83A56"/>
<path d="M406.051 144.903C382.509 121.36 344.296 121.47 320.894 145.209L227.494 239.958L190.802 203.266C167.353 179.817 129.401 179.813 105.949 203.266C82.555 226.659 82.555 264.724 105.949 288.119C166.738 348.907 149.346 331.555 184.387 366.575C208.495 390.671 247.713 390.658 271.807 366.563C305.26 333.11 406.358 229.449 406.358 229.449C429.414 206.056 429.276 168.129 406.051 144.903ZM384.992 208.39C272.045 322.988 250.594 345.35 250.594 345.35C238.189 357.755 218.002 357.757 205.594 345.356C205.594 345.356 132.415 272.159 127.162 266.906C115.465 255.209 115.465 236.176 127.162 224.479C138.888 212.753 157.862 212.754 169.588 224.479L216.964 271.854C222.853 277.743 232.41 277.705 238.253 271.778L342.258 166.27C353.946 154.414 373.054 154.333 384.837 166.117C396.45 177.729 396.52 196.693 384.992 208.39Z" fill="#D83A56"/>
</g>
<defs>
<clipPath id="clip0">
<rect width="512" height="512" fill="white"/>
</clipPath>
</defs>
</svg>
